# xmcd
#
# Track frame offsets:
# 150
# 20950
# 40747
# 51597
# 68230
# 84470
# 99440
# 116790
# 135532
# 155772
#
# Disc length: 2243 seconds
#
#
# Revision: 2
# Processed by: cddbd v1.5.2PL0 Copyright (c) Steve Scherf et al.
# Submitted via: FreeRIP 2.96 
#
DISCID=8d08c10a
DTITLE=Barflys, The [AUS] - The Barflys
DYEAR=1993
DGENRE=Blues
TTITLE0=Thunder Down Under [from 'The Barflys', 1993] [MLVox]
TTITLE1=Take It Easy [from 'The Barflys', 1993] [MLVox]
TTITLE2=Buzz Like a Blowie [from 'The Barflys', 1993] [MLVox]
TTITLE3=Money [from 'The Barflys', 1993] [MLVox]
TTITLE4=Mulloway [from 'The Barflys', 1993] [MLVox]
TTITLE5=Tits [from 'The Barflys', 1993] [MLVox]
TTITLE6=Roller-Coaster [from 'The Barflys', 1993] [MLVox]
TTITLE7=God Damn Flys [from 'The Barflys', 1993] [MLVox]
TTITLE8=Boogie Woman [from 'The Barflys', 1993] [MLVox]
TTITLE9=The Barflys [from 'The Barflys', 1993] [MLVox]
EXTD=Australian band originating from Port Adelaide, South Australia
EXTT0=
EXTT1=
EXTT2=
EXTT3=
EXTT4=
EXTT5=
EXTT6=
EXTT7=
EXTT8=
EXTT9=
PLAYORDER=
